<svg xmlns="http://www.w3.org/2000/svg" version="1.1" xmlns:xlink="http://www.w3.org/1999/xlink" xmlns:svgjs="http://svgjs.dev/svgjs" width="2000" height="1999" viewBox="0 0 2000 1999"><g transform="matrix(1,0,0,1,-0.4314868804665366,-0.4312711370263287)"><svg viewBox="0 0 343 343" data-background-color="#ffffff" preserveAspectRatio="xMidYMid meet" height="1999" width="2000" xmlns="http://www.w3.org/2000/svg" xmlns:xlink="http://www.w3.org/1999/xlink"><g id="tight-bounds" transform="matrix(1,0,0,1,0.07400000000001228,0.07400000000001228)"><svg viewBox="0 0 342.8515585177538 342.8515585177538" height="342.8515585177538" width="342.8515585177538"><g><svg></svg></g><g><svg viewBox="0 0 342.8515585177538 342.8515585177538" height="342.8515585177538" width="342.8515585177538"><g><path d="M0 171.426c0-94.676 76.75-171.426 171.426-171.426 94.676 0 171.426 76.75 171.426 171.426 0 94.676-76.75 171.426-171.426 171.426-94.676 0-171.426-76.75-171.426-171.426zM171.426 339.379c92.758 0 167.953-75.195 167.953-167.953 0-92.758-75.195-167.953-167.953-167.953-92.758 0-167.953 75.195-167.953 167.953 0 92.758 75.195 167.953 167.953 167.953z" data-fill-palette-color="tertiary" fill="#000000" stroke="transparent"></path><ellipse rx="164.56874808852183" ry="164.56874808852183" cx="171.4257792588769" cy="171.4257792588769" fill="#000000" stroke="transparent" stroke-width="0" fill-opacity="1" data-fill-palette-color="tertiary"></ellipse></g><g transform="matrix(1,0,0,1,64.84655864529836,108.63661953528893)"><svg viewBox="0 0 213.15844122715708 125.57831944717594" height="125.57831944717594" width="213.15844122715708"><g><svg viewBox="0 0 213.15844122715708 125.57831944717594" height="125.57831944717594" width="213.15844122715708"><g><svg viewBox="0 0 213.15844122715708 125.57831944717594" height="125.57831944717594" width="213.15844122715708"><g id="textblocktransform"><svg viewBox="0 0 213.15844122715708 125.57831944717594" height="125.57831944717594" width="213.15844122715708" id="textblock"><g><svg viewBox="0 0 213.15844122715708 90.21389808416492" height="90.21389808416492" width="213.15844122715708"><rect width="213.15844122715708" height="90.21389808416492" x="0" y="0" opacity="1" fill="#000000" data-fill-palette-color="tertiary"></rect><g transform="matrix(1,0,0,1,18.18077526076565,18.180775260765646)"><svg width="176.7968907056258" viewBox="3.5 -36 120.64 36.75" height="53.85234756263363" data-palette-color="#ffffff"><path d="M14.45 0.75L14.45 0.75Q10.8 0.75 7.85-0.15 4.9-1.05 3.5-1.9L3.5-1.9 4.25-9.45 7.5-9.15 7.5-6.85Q7.5-6.6 7.58-6.03 7.65-5.45 7.75-4.78 7.85-4.1 7.98-3.53 8.1-2.95 8.2-2.65L8.2-2.65 7.3-3.8Q8.6-3.15 10.53-2.63 12.45-2.1 14.6-2.1L14.6-2.1Q17.7-2.1 19.5-3.78 21.3-5.45 21.3-8.5L21.3-8.5Q21.3-10.6 20.05-12.03 18.8-13.45 16.85-14.58 14.9-15.7 12.73-16.75 10.55-17.8 8.6-19.13 6.65-20.45 5.4-22.3 4.15-24.15 4.15-26.8L4.15-26.8Q4.15-29.8 5.58-31.85 7-33.9 9.45-34.95 11.9-36 14.95-36L14.95-36Q17.4-36 20-35.5 22.6-35 25-34.4L25-34.4 24.3-27 21.4-27.35 21.4-29.45Q21.4-29.8 21.25-30.53 21.1-31.25 20.9-32.08 20.7-32.9 20.5-33.55L20.5-33.55 21.9-31.7Q19.75-32.85 18.25-33.13 16.75-33.4 14.7-33.4L14.7-33.4Q12.4-33.4 10.68-31.98 8.95-30.55 8.95-27.75L8.95-27.75Q8.95-25.75 10.2-24.38 11.45-23 13.45-21.88 15.45-20.75 17.65-19.65 19.85-18.55 21.85-17.15 23.85-15.75 25.1-13.8 26.35-11.85 26.35-9L26.35-9Q26.35-5.7 24.75-3.55 23.15-1.4 20.45-0.33 17.75 0.75 14.45 0.75ZM32.75 0.25L32.75 0.25 32.5-2.2 38.2-3.35 36.25-1.4Q36.35-1.85 36.5-2.93 36.65-4 36.8-5.13 36.95-6.25 36.95-6.75L36.95-6.75 36.95-28.5Q36.95-29.05 36.82-30.13 36.7-31.2 36.52-32.3 36.35-33.4 36.25-33.9L36.25-33.9 38.2-32 32.6-32.9 32.85-35.5Q33.8-35.45 34.95-35.4 36.1-35.35 37.12-35.3 38.15-35.25 38.6-35.25L38.6-35.25 41.8-33.9Q41.75-33.5 41.62-32.35 41.5-31.2 41.37-29.75 41.25-28.3 41.25-27L41.25-27 41.25-8.25Q41.25-6.95 41.35-5.63 41.45-4.3 41.6-3.18 41.75-2.05 41.85-1.4L41.85-1.4 39.9-3.15 46.25-2.65 45.9 0 39.45 0Q38.85 0 37.7 0.05 36.55 0.1 35.22 0.15 33.9 0.2 32.75 0.25ZM61.65 0L53.9 0Q53.45-1 52.87-2.2 52.3-3.4 51.8-4.4 51.3-5.4 51.1-5.8L51.1-5.8 45.05-17.25 49.75-17.45Q51.1-14.8 52.42-12.4 53.75-10 54.72-8.4 55.7-6.8 55.85-6.55L55.85-6.55Q56.2-6 56.95-4.93 57.7-3.85 58.35-3L58.35-3 62-2.65 61.65 0ZM45.85-15.15L45.85-15.15Q43.85-15.15 41.85-15.2 39.85-15.25 37.85-15.35L37.85-15.35 37.85-18.2Q39.6-18 41.35-17.75 43.1-17.5 44.85-17.5L44.85-17.5Q48.75-17.5 51.1-19.48 53.45-21.45 53.45-25.4L53.45-25.4Q53.45-29.2 51.1-31.15 48.75-33.1 44.85-33.1L44.85-33.1Q43.95-33.1 42.9-33.05 41.85-33 40.77-32.88 39.7-32.75 38.6-32.6L38.6-32.6 38.6-35.25Q40.65-35.25 42.75-35.38 44.85-35.5 46.9-35.5L46.9-35.5Q50.35-35.5 52.8-34.38 55.25-33.25 56.57-31 57.9-28.75 57.9-25.4L57.9-25.4Q57.9-22.15 56.27-19.85 54.65-17.55 51.9-16.35 49.15-15.15 45.85-15.15ZM67.39 0.25L67.39 0.25 67.14-2.2 72.84-3.35 70.94-1.2Q71.05-1.85 71.19-2.95 71.34-4.05 71.47-5.13 71.59-6.2 71.59-6.75L71.59-6.75 71.59-28.5Q71.59-28.9 71.52-29.58 71.44-30.25 71.34-31.03 71.25-31.8 71.14-32.48 71.05-33.15 70.94-33.5L70.94-33.5 72.14-32.15 67.25-32.9 67.5-35.5Q68.44-35.45 69.59-35.4 70.75-35.35 71.77-35.3 72.8-35.25 73.25-35.25L73.25-35.25Q74.5-35.25 75.97-35.33 77.44-35.4 78.89-35.45 80.34-35.5 81.59-35.5L81.59-35.5Q84.14-35.5 86.27-34.5 88.39-33.5 89.67-31.65 90.94-29.8 90.94-27.15L90.94-27.15Q90.94-24.75 89.89-22.85 88.84-20.95 87.02-19.78 85.19-18.6 82.84-18.25L82.84-18.25 84-20.2 84-16.45 82.75-18.3Q85.55-18.15 87.75-17.03 89.94-15.9 91.22-13.93 92.5-11.95 92.5-9.15L92.5-9.15Q92.5-6.35 91.17-4.23 89.84-2.1 87.57-0.95 85.3 0.2 82.44 0.2L82.44 0.2Q80.59 0.2 78.3 0.1 76 0 74.09 0L74.09 0Q73.5 0 72.34 0.05 71.19 0.1 69.87 0.15 68.55 0.2 67.39 0.25ZM76.44-1L76.44-1 75.39-2.9Q76.34-2.85 77.84-2.73 79.34-2.6 80.89-2.6L80.89-2.6Q83.89-2.6 85.77-4.38 87.64-6.15 87.64-9.5L87.64-9.5Q87.64-12.05 86.47-13.7 85.3-15.35 83.34-16.13 81.39-16.9 79.14-16.9L79.14-16.9 78.55-16.9 78.89-19.65 79.3-19.65Q82.3-19.65 84.39-21.43 86.5-23.2 86.5-26.6L86.5-26.6Q86.5-29.45 84.84-31.18 83.19-32.9 80.55-32.9L80.55-32.9Q79.14-32.9 77.77-32.9 76.39-32.9 75.3-32.8L75.3-32.8 76.44-34.05Q76.39-33.7 76.27-32.5 76.14-31.3 76.02-29.83 75.89-28.35 75.89-27L75.89-27 75.89-8.25Q75.89-6.9 75.97-5.45 76.05-4 76.19-2.8 76.34-1.6 76.44-1ZM98.84 0.25L98.84 0.25 98.59-2.2 104.29-3.35 102.34-1.4Q102.44-1.85 102.59-2.93 102.74-4 102.89-5.13 103.04-6.25 103.04-6.75L103.04-6.75 103.04-28.5Q103.04-29.05 102.92-30.13 102.79-31.2 102.62-32.3 102.44-33.4 102.34-33.9L102.34-33.9 104.29-32 98.69-32.9 98.94-35.5Q99.89-35.45 101.04-35.4 102.19-35.35 103.22-35.3 104.24-35.25 104.69-35.25L104.69-35.25 107.89-33.9Q107.84-33.5 107.72-32.35 107.59-31.2 107.47-29.75 107.34-28.3 107.34-27L107.34-27 107.34-8.25Q107.34-6.95 107.44-5.63 107.54-4.3 107.69-3.18 107.84-2.05 107.94-1.4L107.94-1.4 105.99-3.15 112.79-2.65 112.44 0 105.54 0Q104.94 0 103.79 0.05 102.64 0.1 101.32 0.15 99.99 0.2 98.84 0.25ZM111.94-14.65L111.94-14.65Q109.84-14.65 107.97-14.73 106.09-14.8 103.89-14.9L103.89-14.9 103.89-17.7Q105.64-17.5 107.44-17.25 109.24-17 110.99-17L110.99-17Q114.94-17 117.32-19 119.69-21 119.69-25.1L119.69-25.1Q119.69-29 117.32-31.05 114.94-33.1 110.99-33.1L110.99-33.1Q109.94-33.1 108.89-33.05 107.84-33 106.82-32.93 105.79-32.85 104.69-32.75L104.69-32.75 104.69-35.25Q106.74-35.25 108.87-35.38 110.99-35.5 113.04-35.5L113.04-35.5Q118.24-35.5 121.19-32.9 124.14-30.3 124.14-25.1L124.14-25.1Q124.14-21.75 122.47-19.43 120.79-17.1 118.04-15.88 115.29-14.65 111.94-14.65Z" opacity="1" transform="matrix(1,0,0,1,0,0)" fill="#ffffff" class="wordmark-text-0" data-fill-palette-color="quaternary" id="text-0"></path></svg></g></svg></g><g transform="matrix(1,0,0,1,0,99.30428571454775)"><svg viewBox="0 0 213.15844122715708 26.274033732628197" height="26.274033732628197" width="213.15844122715708"><g transform="matrix(1,0,0,1,0,0)"><svg width="213.15844122715708" viewBox="2.6 -33.48 341.31 42.08" height="26.274033732628197" data-palette-color="#ffffff"><path d="M14.45 0.58L14.45 0.58Q8.53 0.58 5.56-2.75 2.6-6.08 2.6-12.2L2.6-12.2 2.6-19.78Q2.6-25.9 5.55-29.21 8.5-32.52 14.4-32.52L14.4-32.52Q16.3-32.52 17.86-32.18 19.43-31.83 20.65-31.28 21.88-30.73 22.73-30.13L22.73-30.13 23.08-26.28Q21.6-27.33 19.61-28.11 17.63-28.9 14.95-28.9L14.95-28.9Q10.93-28.9 8.88-26.51 6.83-24.13 6.83-19.73L6.83-19.73 6.83-12.35Q6.83-7.98 8.9-5.56 10.98-3.15 15.1-3.15L15.1-3.15Q17.75-3.15 19.79-3.93 21.83-4.7 23.33-5.83L23.33-5.83 22.98-1.88Q22.13-1.28 20.88-0.7 19.63-0.13 18.01 0.23 16.4 0.58 14.45 0.58ZM37.7 0.63L37.7 0.63Q32.45 0.63 29.73-2.21 27.02-5.05 27.02-10.38L27.02-10.38 27.02-14.1Q27.02-19.4 29.75-22.23 32.47-25.05 37.7-25.05L37.7-25.05Q42.95-25.05 45.66-22.23 48.37-19.4 48.37-14.1L48.37-14.1 48.37-10.38Q48.37-5.05 45.66-2.21 42.95 0.63 37.7 0.63ZM37.7-2.68L37.7-2.68Q40.95-2.68 42.63-4.6 44.32-6.53 44.32-10.15L44.32-10.15 44.32-14.33Q44.32-17.93 42.63-19.84 40.95-21.75 37.7-21.75L37.7-21.75Q34.47-21.75 32.77-19.84 31.07-17.93 31.07-14.33L31.07-14.33 31.07-10.15Q31.07-6.53 32.77-4.6 34.47-2.68 37.7-2.68ZM74.37 0L70.32 0 70.32-15.18Q70.32-17.15 69.78-18.57 69.25-20 68.03-20.79 66.82-21.58 64.72-21.58L64.72-21.58Q62.8-21.58 61.38-20.85 59.97-20.13 59.09-18.89 58.22-17.65 57.87-16.07L57.87-16.07 57.15-18.95 58.02-18.95Q58.42-20.6 59.42-21.96 60.42-23.33 62.11-24.14 63.8-24.95 66.25-24.95L66.25-24.95Q69.14-24.95 70.93-23.85 72.72-22.75 73.55-20.69 74.37-18.63 74.37-15.63L74.37-15.63 74.37 0ZM58.05 0L53.99 0 53.99-24.4 58.05-24.4 57.87-18.55 58.05-18.32 58.05 0ZM88.69 0.53L88.69 0.53Q84.29 0.53 81.99-2.2 79.69-4.93 79.69-10.15L79.69-10.15 79.69-14.18Q79.69-19.43 82.03-22.19 84.37-24.95 88.87-24.95L88.87-24.95Q91.12-24.95 92.78-24.19 94.44-23.43 95.48-22.05 96.52-20.68 96.84-18.8L96.84-18.8 98.19-18.8 96.94-15.08Q96.87-17.28 95.94-18.74 95.02-20.2 93.5-20.93 91.99-21.65 90.04-21.65L90.04-21.65Q86.99-21.65 85.37-19.85 83.74-18.05 83.74-14.5L83.74-14.5 83.74-9.9Q83.74-6.45 85.38-4.65 87.02-2.85 90.09-2.85L90.09-2.85Q91.97-2.85 93.39-3.56 94.82-4.28 95.75-5.54 96.69-6.8 97.04-8.4L97.04-8.4 97.97-5.5 96.82-5.5Q96.44-3.85 95.47-2.48 94.49-1.1 92.83-0.29 91.17 0.53 88.69 0.53ZM100.89 8.6L96.87 8.6 96.87 0.68 96.99-6.28 96.94-7.08 96.94-17.28 97.02-18.53 96.84-24.4 100.89-24.4 100.89 8.6ZM107.19-24.4L111.22-24.4 111.22-9.22Q111.22-7.3 111.75-5.86 112.29-4.42 113.52-3.64 114.74-2.85 116.81-2.85L116.81-2.85Q118.77-2.85 120.16-3.56 121.56-4.28 122.45-5.53 123.34-6.78 123.66-8.35L123.66-8.35 124.39-5.48 123.52-5.48Q123.14-3.83 122.14-2.46 121.14-1.1 119.45-0.29 117.77 0.53 115.29 0.53L115.29 0.53Q112.41 0.53 110.63-0.56 108.84-1.65 108.02-3.74 107.19-5.83 107.19-8.78L107.19-8.78 107.19-24.4ZM123.49-24.4L127.54-24.4 127.54 0 123.49 0 123.66-5.85 123.49-6.1 123.49-24.4ZM144.39 0.55L144.39 0.55Q138.81 0.55 135.99-2.18 133.16-4.9 133.16-9.98L133.16-9.98 133.16-14.33Q133.16-19.48 135.79-22.26 138.41-25.05 143.46-25.05L143.46-25.05Q146.86-25.05 149.14-23.79 151.41-22.53 152.56-20.2 153.71-17.88 153.71-14.65L153.71-14.65 153.71-13.75Q153.71-12.95 153.65-12.15 153.59-11.35 153.49-10.58L153.49-10.58 149.76-10.58Q149.81-11.78 149.83-12.85 149.84-13.93 149.84-14.83L149.84-14.83Q149.84-17.05 149.13-18.59 148.41-20.13 147-20.94 145.59-21.75 143.46-21.75L143.46-21.75Q140.31-21.75 138.74-19.93 137.16-18.1 137.16-14.7L137.16-14.7 137.16-12.38 137.19-11.88 137.19-9.55Q137.19-8.03 137.64-6.8 138.09-5.58 139.05-4.69 140.01-3.8 141.5-3.34 142.99-2.88 145.04-2.88L145.04-2.88Q147.41-2.88 149.46-3.5 151.51-4.13 153.31-5.2L153.31-5.2 152.94-1.7Q151.31-0.68 149.16-0.06 147.01 0.55 144.39 0.55ZM152.64-10.58L135.29-10.58 135.29-13.63 152.64-13.63 152.64-10.58ZM162.96-14.93L162.96-14.93 162.03-18.05 163.03-18.1Q163.84-21.2 165.78-22.99 167.74-24.78 170.96-24.78L170.96-24.78Q171.76-24.78 172.4-24.65 173.03-24.53 173.53-24.35L173.53-24.35 173.78-20.43Q173.16-20.63 172.4-20.75 171.63-20.88 170.71-20.88L170.71-20.88Q167.96-20.88 165.92-19.35 163.88-17.82 162.96-14.93ZM163.16 0L159.11 0 159.11-24.4 163.06-24.4 162.86-17.2 163.16-16.9 163.16 0ZM201.98 0L195.76 0 189.76-24.4 193.93-24.4 198.73-2.95 199.21-2.95 204.21-23.75 209.93-23.75 214.93-2.95 215.38-2.95 220.23-24.4 224.38-24.4 218.38 0 212.18 0 208.06-17.35 207.26-20.83 206.88-20.83 206.11-17.35 201.98 0ZM233.15 0L229.1 0 229.1-24.4 233.15-24.4 233.15 0ZM231.13-28.4L231.13-28.4Q229.88-28.4 229.27-29.06 228.65-29.73 228.65-30.88L228.65-30.88 228.65-31Q228.65-32.18 229.27-32.83 229.88-33.48 231.13-33.48L231.13-33.48Q232.38-33.48 233-32.83 233.63-32.18 233.63-31L233.63-31 233.63-30.88Q233.63-29.7 233-29.05 232.38-28.4 231.13-28.4ZM248.73 0.5L248.73 0.5Q245.9 0.5 244.18-0.35 242.45-1.2 241.68-2.93 240.9-4.65 240.9-7.23L240.9-7.23 240.9-22.63 244.9-22.63 244.9-7.7Q244.9-5.3 246-4.16 247.1-3.03 249.7-3.03L249.7-3.03Q251.18-3.03 252.54-3.35 253.9-3.68 255.1-4.28L255.1-4.28 254.73-0.8Q253.55-0.2 251.98 0.15 250.4 0.5 248.73 0.5ZM254.48-20.8L236.9-20.8 236.9-24.05 254.85-24.05 254.48-20.8ZM244.8-23.65L240.93-23.65 240.9-30.5 244.98-31.03 244.8-23.65ZM280 0L275.95 0 275.95-15.18Q275.95-17.15 275.41-18.57 274.87-20 273.66-20.79 272.45-21.58 270.35-21.58L270.35-21.58Q268.42-21.58 267.02-20.85 265.62-20.13 264.76-18.89 263.9-17.65 263.55-16.07L263.55-16.07 262.65-18.95 263.7-18.95Q264.07-20.6 265.07-21.96 266.07-23.33 267.76-24.14 269.45-24.95 271.87-24.95L271.87-24.95Q274.77-24.95 276.56-23.85 278.35-22.75 279.17-20.69 280-18.63 280-15.63L280-15.63 280 0ZM263.67 0L259.62 0 259.62-33.13 263.65-33.13 263.65-25.18 263.52-18.18 263.67-17.85 263.67 0ZM299.87-24.4L303.89-24.4 303.89-9.22Q303.89-7.3 304.43-5.86 304.97-4.42 306.19-3.64 307.42-2.85 309.49-2.85L309.49-2.85Q311.44-2.85 312.84-3.56 314.24-4.28 315.13-5.53 316.02-6.78 316.34-8.35L316.34-8.35 317.07-5.48 316.19-5.48Q315.82-3.83 314.82-2.46 313.82-1.1 312.13-0.29 310.44 0.53 307.97 0.53L307.97 0.53Q305.09 0.53 303.3-0.56 301.52-1.65 300.69-3.74 299.87-5.83 299.87-8.78L299.87-8.78 299.87-24.4ZM316.17-24.4L320.22-24.4 320.22 0 316.17 0 316.34-5.85 316.17-6.1 316.17-24.4ZM334.44 0.55L334.44 0.55Q331.49 0.55 329.29-0.09 327.09-0.73 325.64-1.48L325.64-1.48 325.26-5.23Q327.09-4.28 329.28-3.58 331.46-2.88 334.24-2.88L334.24-2.88Q337.06-2.88 338.49-3.78 339.91-4.67 339.91-6.45L339.91-6.45 339.91-6.73Q339.91-7.88 339.38-8.63 338.84-9.38 337.44-9.95 336.04-10.53 333.46-11.1L333.46-11.1Q330.39-11.78 328.61-12.69 326.84-13.6 326.08-14.95 325.31-16.3 325.31-18.25L325.31-18.25 325.31-18.48Q325.31-21.68 327.54-23.33 329.76-24.98 334.24-24.98L334.24-24.98Q337.11-24.98 339.23-24.33 341.34-23.68 342.69-22.88L342.69-22.88 343.06-19.45Q341.44-20.4 339.34-21.03 337.24-21.65 334.61-21.65L334.61-21.65Q332.71-21.65 331.54-21.26 330.36-20.88 329.84-20.16 329.31-19.45 329.31-18.45L329.31-18.45 329.31-18.25Q329.31-17.15 329.84-16.39 330.36-15.63 331.73-15.06 333.09-14.5 335.51-13.98L335.51-13.98Q338.64-13.35 340.48-12.48 342.31-11.6 343.11-10.26 343.91-8.93 343.91-6.83L343.91-6.83 343.91-6.4Q343.91-2.95 341.51-1.2 339.11 0.55 334.44 0.55Z" opacity="1" transform="matrix(1,0,0,1,0,0)" fill="#ffffff" class="slogan-text-1" data-fill-palette-color="quaternary" id="text-1"></path></svg></g></svg></g></svg></g></svg></g></svg></g></svg></g></svg></g><defs></defs></svg><rect width="342.8515585177538" height="342.8515585177538" fill="none" stroke="none" visibility="hidden"></rect></g></svg></g></svg>